<svg width="342" height="10" viewBox="0 0 342 10" fill="none" xmlns="http://www.w3.org/2000/svg">
<path d="M2 8C6.04066 8 7.76106 6.5915 9.87573 5.1014C12.0401 3.5774 14.4255 2 18.9 2C23.3745 2 25.7599 3.5774 27.9243 5.1014C30.039 6.5915 31.7594 8 35.8 8C39.8407 8 41.5611 6.5915 43.6757 5.1014C45.8401 3.5774 48.2255 2 52.7 2C57.1745 2 59.5599 3.5774 61.7243 5.1014C63.839 6.5915 65.5594 8 69.6 8C73.6407 8 75.3611 6.5915 77.4757 5.1014C79.6401 3.5774 82.0255 2 86.5 2C90.9745 2 93.3599 3.5774 95.5243 5.1014C97.639 6.5915 99.3594 8 103.4 8C107.441 8 109.161 6.5915 111.276 5.1014C113.44 3.5774 115.826 2 120.3 2C124.775 2 127.16 3.5774 129.324 5.1014C131.439 6.5915 133.159 8 137.2 8C141.241 8 142.961 6.5915 145.076 5.1014C147.24 3.5774 149.626 2 154.1 2C158.575 2 160.96 3.5774 163.124 5.1014C165.239 6.5915 166.959 8 171 8C175.041 8 176.761 6.5915 178.876 5.1014C181.04 3.5774 183.426 2 187.9 2C192.375 2 194.76 3.5774 196.924 5.1014C199.039 6.5915 200.759 8 204.8 8C208.841 8 210.561 6.5915 212.676 5.1014C214.84 3.5774 217.226 2 221.7 2C226.175 2 228.56 3.5774 230.724 5.1014C232.839 6.5915 234.559 8 238.6 8C242.641 8 244.361 6.5915 246.476 5.1014C248.64 3.5774 251.026 2 255.5 2C259.975 2 262.36 3.5774 264.524 5.1014C266.639 6.5915 268.359 8 272.4 8C276.441 8 278.161 6.5915 280.276 5.1014C282.44 3.5774 284.826 2 289.3 2C293.775 2 296.16 3.5774 298.324 5.1014C300.439 6.5915 302.159 8 306.2 8C310.241 8 311.961 6.5915 314.076 5.1014C316.24 3.5774 318.626 2 323.1 2C327.575 2 329.96 3.5774 332.124 5.1014C334.239 6.5915 335.959 8 340 8" stroke="#232323" stroke-width="3" stroke-linecap="round"/>
</svg>
