<?xml version="1.0" standalone="no"?>
<!DOCTYPE svg PUBLIC "-//W3C//DTD SVG 20010904//EN"
 "http://www.w3.org/TR/2001/REC-SVG-20010904/DTD/svg10.dtd">
<svg version="1.0" xmlns="http://www.w3.org/2000/svg"
 width="900.000000pt" height="900.000000pt" viewBox="0 0 900.000000 900.000000"
 preserveAspectRatio="xMidYMid meet">
<metadata>
Created by potrace 1.14, written by Peter Selinger 2001-2017
</metadata>
<g transform="translate(0.000000,900.000000) scale(0.100000,-0.100000)"
fill="#000000" stroke="none">
<path d="M4400 6880 c-592 -30 -1029 -134 -1345 -318 -110 -64 -251 -204 -293
-292 -46 -96 -65 -189 -57 -280 10 -113 42 -273 77 -385 26 -81 40 -108 74
-146 l43 -45 -115 -145 c-64 -79 -130 -164 -147 -189 -17 -25 -34 -47 -38 -50
-3 -3 -30 -41 -59 -85 -219 -337 -310 -604 -310 -911 0 -414 242 -721 681
-864 100 -33 232 -60 293 -60 22 0 46 -4 53 -8 7 -4 17 -46 22 -92 34 -267 53
-323 154 -441 96 -112 213 -195 392 -280 474 -223 1131 -252 1665 -73 333 112
580 300 660 504 20 51 35 166 105 815 14 132 35 319 45 415 42 377 131 1198
136 1255 8 97 10 100 89 159 136 102 169 161 221 401 31 145 41 297 25 378
-21 99 -76 193 -160 277 -93 93 -143 127 -279 195 -213 106 -481 180 -827 229
-236 34 -796 52 -1105 36z m-1310 -2070 c22 -215 61 -573 110 -1023 17 -147
30 -274 30 -282 0 -21 -149 -29 -261 -15 -156 19 -221 43 -267 95 -126 143
-135 479 -22 800 57 161 110 259 278 518 75 116 98 145 103 130 4 -10 17 -110
29 -223z"/>
</g>
</svg>
